<?xml version="1.0" standalone="no"?>
<!DOCTYPE svg PUBLIC "-//W3C//DTD SVG 20010904//EN"
 "http://www.w3.org/TR/2001/REC-SVG-20010904/DTD/svg10.dtd">
<svg version="1.0" xmlns="http://www.w3.org/2000/svg"
 width="118.000000pt" height="118.000000pt" viewBox="0 0 118.000000 118.000000"
 preserveAspectRatio="xMidYMid meet">
<metadata>
Created by potrace 1.11, written by Peter Selinger 2001-2013
</metadata>
<g transform="translate(0.000000,118.000000) scale(0.100000,-0.100000)"
fill="#000000" stroke="none">
<path d="M150 590 l0 -590 178 142 c97 79 186 151 197 161 39 37 65 50 78 40
6 -6 73 -59 148 -119 74 -60 152 -122 173 -139 22 -16 44 -34 50 -40 6 -5 22
-19 34 -29 l22 -19 0 591 0 592 -440 0 -440 0 0 -590z"/>
</g>
</svg>
