<svg width="20" height="21" viewBox="0 0 20 21" fill="none" xmlns="http://www.w3.org/2000/svg">
<path d="M17.6174 15.4331C16.9971 14.8081 15.4948 13.896 14.7659 13.5285C13.8166 13.0503 13.7385 13.0113 12.9924 13.5656C12.4948 13.9355 12.1639 14.266 11.5815 14.1417C10.9991 14.0175 9.73343 13.3171 8.62522 12.2124C7.51702 11.1077 6.77601 9.8054 6.6514 9.22493C6.52679 8.64447 6.86272 8.31751 7.22913 7.81868C7.74554 7.11556 7.70647 6.99837 7.26507 6.04915C6.92093 5.31087 5.98226 3.82259 5.35491 3.2054C4.68382 2.54251 4.68382 2.6597 4.2514 2.83939C3.89935 2.98751 3.56161 3.16756 3.24241 3.37728C2.61741 3.79251 2.27054 4.13743 2.02796 4.65579C1.78538 5.17415 1.6764 6.38939 2.92913 8.66517C4.18186 10.941 5.06077 12.1046 6.87991 13.9187C8.69905 15.7327 10.0979 16.7081 12.1428 17.855C14.6725 19.2718 15.6428 18.9956 16.1627 18.7535C16.6826 18.5113 17.0291 18.1675 17.4451 17.5425C17.6554 17.2238 17.8359 16.8865 17.9842 16.5347C18.1643 16.1038 18.2815 16.1038 17.6174 15.4331Z" stroke="#003B1F" stroke-width="1.3" stroke-miterlimit="10"/>
</svg>
