<svg width="21" height="21" viewBox="0 0 21 21" fill="none" xmlns="http://www.w3.org/2000/svg">
<g clip-path="url(#clip0)">
<path d="M11.8936 20.959H8.53059C7.96887 20.959 7.51193 20.502 7.51193 19.9403V12.355H5.54991C4.98819 12.355 4.53125 11.8979 4.53125 11.3363V8.08601C4.53125 7.52429 4.98819 7.06735 5.54991 7.06735H7.51193V5.4397C7.51193 3.82583 8.0187 2.45277 8.97728 1.46919C9.94019 0.481133 11.2859 -0.0410156 12.8688 -0.0410156L15.4336 -0.03685C15.9943 -0.0358887 16.4505 0.421051 16.4505 0.981812V3.99966C16.4505 4.56139 15.9937 5.01833 15.4321 5.01833L13.7053 5.01897C13.1787 5.01897 13.0446 5.12455 13.0159 5.15691C12.9686 5.21059 12.9124 5.36231 12.9124 5.78128V7.06718H15.3023C15.4823 7.06718 15.6566 7.11157 15.8064 7.1952C16.1295 7.37576 16.3305 7.71719 16.3305 8.08617L16.3292 11.3365C16.3292 11.8979 15.8722 12.3548 15.3105 12.3548H12.9124V19.9403C12.9124 20.502 12.4553 20.959 11.8936 20.959ZM8.74304 19.7279H11.6811V11.8038C11.6811 11.4288 11.9863 11.1237 12.3612 11.1237H15.0981L15.0992 8.29846H12.3611C11.9862 8.29846 11.6811 7.9934 11.6811 7.61833V5.78128C11.6811 5.30031 11.73 4.75333 12.093 4.34221C12.5317 3.84522 13.223 3.78786 13.705 3.78786L15.2193 3.78722V1.19394L12.8678 1.19009C10.3239 1.19009 8.74304 2.81854 8.74304 5.4397V7.61833C8.74304 7.99324 8.43799 8.29846 8.06308 8.29846H5.76236V11.1237H8.06308C8.43799 11.1237 8.74304 11.4288 8.74304 11.8038V19.7279Z" fill="#F2EFE4"/>
</g>
<defs>
<clipPath id="clip0">
<rect width="20.959" height="21" fill="white"/>
</clipPath>
</defs>
</svg>
